<?xml version="1.0" encoding="UTF-8"?>
<svg xmlns="http://www.w3.org/2000/svg" viewBox="0 0 512 512" width="512" height="512">
  <!-- Fond -->
  <rect width="512" height="512" fill="#fff" rx="80"/>
  <!-- Vélo centré et agrandi -->
  <g transform="translate(106, 150) scale(3)">
    <path d="M80.344 37.212c-.424 0-.838.037-1.254.063L71.404 4.444a2.769 2.769 0 0 0-2.024-2.057L60.514.17 59.17 5.548l7.226 1.806 2.585 11.043-.098-.07-21.552 29.984a7.657 7.657 0 0 0-.787.072v-.089l-.747.093-10.304-25.759 8.835-2.039v-4.433H18.839a7.757 7.757 0 0 0 7.758 7.758h3.443l10.073 25.185-2.711.339c-2.853-7.158-9.833-12.225-18.009-12.225C8.683 37.213 0 45.9 0 56.607 0 67.314 8.684 76 19.393 76c8.573 0 15.834-5.57 18.397-13.284l8.754 1.094v-.089c.363.053.732.089 1.108.089a7.759 7.759 0 0 0 7.758-7.758 7.721 7.721 0 0 0-1.163-4.07L71.291 28.27l2.376 10.15c-7.416 2.724-12.716 9.828-12.716 18.186C60.95 67.313 69.635 76 80.344 76c10.71 0 19.394-8.686 19.394-19.394 0-10.707-8.684-19.393-19.394-19.393zm-60.95 33.246c-7.64 0-13.853-6.214-13.853-13.853 0-7.638 6.214-13.852 13.852-13.852 5.31 0 9.927 3.007 12.25 7.404l-11.695 1.462a4.433 4.433 0 0 0 0 8.865l12.2 1.525c-2.11 4.96-7.032 8.449-12.755 8.449zm60.95 0c-7.639 0-13.852-6.214-13.852-13.853 0-5.721 3.486-10.643 8.446-12.753l3.263 13.938 5.394-1.262-3.223-13.775c7.625.018 13.825 6.224 13.825 13.852 0 7.638-6.214 13.853-13.853 13.853z" fill="#000000"/>
  </g>
</svg>